# xmcd
#
# Track frame offsets:
#	150
#	13412
#	26775
#	37725
#	46637
#	58250
#	68237
#	77112
#	87450
#	97225
#	110112
#	121325
#	132187
#	145412
#	157750
#	171212
#
# Disc length: 2432 seconds
#
# Revision: 1
# Processed by: cddbd v1.4PL0 Copyright (c) Steve Scherf et al.
# Submitted via: audiograbber 1.82.02
#
DISCID=de097e10
DTITLE=Claude King - Woverton Mountain
DYEAR=1999
DGENRE=
TTITLE0=Tiger Woman
TTITLE1=Wolverton Mountain
TTITLE2=Big River, Big Man
TTITLE3=I've Got The World By The Tail
TTITLE4=The Burning Of Atlanta
TTITLE5=The Comancheros
TTITLE6=Sheepskin Valley
TTITLE7=I'm Building A Bridge
TTITLE8=Catch A Little Raindrop
TTITLE9=All For The Love Of A Girl
TTITLE10=Hey Lucille
TTITLE11=Sam Hill
TTITLE12=Little Buddy
TTITLE13=Friend, Lover, Woman, Wife
TTITLE14=Mary's Vineyard
TTITLE15=Chip 'n' Dale's Place
EXTD=
EXTT0=
EXTT1=
EXTT2=
EXTT3=
EXTT4=
EXTT5=
EXTT6=
EXTT7=
EXTT8=
EXTT9=
EXTT10=
EXTT11=
EXTT12=
EXTT13=
EXTT14=
EXTT15=
PLAYORDER=
